<?xml version="1.0" encoding="UTF-8" standalone="no"?>
<svg
   fill="#000000"
   viewBox="0 0 30 30"
   width="60"
   height="60"
   version="1.1"
   id="svg56"
   sodipodi:docname="delete.svg"
   xmlns:inkscape="http://www.inkscape.org/namespaces/inkscape"
   xmlns:sodipodi="http://sodipodi.sourceforge.net/DTD/sodipodi-0.dtd"
   xmlns="http://www.w3.org/2000/svg"
   xmlns:svg="http://www.w3.org/2000/svg">
  <defs
     id="defs60" />
  <sodipodi:namedview
     id="namedview58"
     pagecolor="#505050"
     bordercolor="#eeeeee"
     borderopacity="1"
     inkscape:showpageshadow="0"
     inkscape:pageopacity="0"
     inkscape:pagecheckerboard="0"
     inkscape:deskcolor="#505050"
     showgrid="false" />
  <path
     d="M 14.984375,2.4863281 A 1.0001,1.0001 0 0 0 14,3.5 V 4 H 8.5 A 1.0001,1.0001 0 0 0 7.4863281,5 H 6 A 1.0001,1.0001 0 1 0 6,7 H 24 A 1.0001,1.0001 0 1 0 24,5 H 22.513672 A 1.0001,1.0001 0 0 0 21.5,4 H 16 V 3.5 A 1.0001,1.0001 0 0 0 14.984375,2.4863281 Z M 6,9 7.7929688,24.234375 C 7.9109687,25.241375 8.7633438,26 9.7773438,26 H 20.222656 c 1.014,0 1.865375,-0.758625 1.984375,-1.765625 L 24,9 Z"
     id="path54"
     style="fill:#ffffff" />
</svg>
